<?xml version="1.0" encoding="UTF-8" standalone="no"?>
<!-- Created by Symbolator http://kevinpt.github.io/symbolator -->
<svg xmlns="http://www.w3.org/2000/svg"
xmlns:xlink="http://www.w3.org/1999/xlink"
xml:space="preserve"
width="507" height="217" viewBox="-99 -20 507.0 217.0" version="1.1">
<style type="text/css">
<![CDATA[
.fnt1 {fill:#000000;
    font-family:Times; font-size:12pt; font-weight:normal; font-style:italic;}
.fnt2 {fill:#000000;
    font-family:Helvetica; font-size:12pt; font-weight:normal; font-style:normal;}
.label {fill:#000;
  text-anchor:middle;
  font-size:16pt; font-weight:bold; font-family:Sans;}
.link {fill: #0D47A1;}
.link:hover {fill: #0D47A1; text-decoration:underline;}
.link:visited {fill: #4A148C;}
]]>
</style>
<defs>
<marker id="arrow_fwd" markerWidth="8.0" markerHeight="8.0" viewBox="0 0 8.0 8.0" refX="3.2" refY="4.0" orient="auto" markerUnits="userSpaceOnUse">
<g transform="translate(-0.0,4.0)"><path d="M 0 -4 C 2 -1, 2 1, 0 4 L 8 0 z" stroke="none" fill="#000000"/>
</g>
</marker>
<marker id="arrow_back" markerWidth="8.0" markerHeight="8.0" viewBox="0 0 8.0 8.0" refX="4.8" refY="4.0" orient="auto" markerUnits="userSpaceOnUse">
<g transform="translate(8.0,4.0)"><path d="M 0 -4 C -2 -1, -2 1, 0 4 L -8 0 z" stroke="none" fill="#000000"/>
</g>
</marker>
<marker id="clock" markerWidth="8.0" markerHeight="15.0" viewBox="0 0 8.0 15.0" refX="0.5" refY="7.5" orient="auto" markerUnits="userSpaceOnUse">
<g transform="translate(0.5,7.5)"><path d="M 0 -7 L 0 7 L 7 0 z" stroke="#000000" fill="#FFFFFF" stroke-width="1"/>
</g>
</marker>
</defs>
<rect x="-99" y="-20" width="100%" height="100%" fill="white"/><g transform="translate(0,0)">
<rect x="0" y="-15.0" width="300" height="93.0" stroke="#000000" fill="#C5DBFC" stroke-width="1"/>
<text class="fnt1" x="150.0" y="0" text-anchor="middle" dy="6.5">LPC interface</text>
<g transform="translate(0,23)">
<line x1="-20" y1="0" x2="0" y2="0" stroke="#000000" fill="none" stroke-width="1" marker-end="url(#clock)"/>
<text class="fnt2" x="10" y="0" text-anchor="normal" dy="7.0">clk_i</text>
<text class="fnt2" x="-30" y="0" text-anchor="end" dy="7.0" style="fill:#969696">wire</text>
</g>
<g transform="translate(0,43)">
<line x1="-20" y1="0" x2="0" y2="0" stroke="#000000" fill="none" stroke-width="1"/>
<text class="fnt2" x="10" y="0" text-anchor="normal" dy="7.0">nrst_i</text>
<text class="fnt2" x="-30" y="0" text-anchor="end" dy="7.0" style="fill:#969696">wire</text>
</g>
<g transform="translate(0,63)">
<line x1="-20" y1="0" x2="0" y2="0" stroke="#000000" fill="none" stroke-width="1"/>
<text class="fnt2" x="10" y="0" text-anchor="normal" dy="7.0">lframe_i</text>
<text class="fnt2" x="-30" y="0" text-anchor="end" dy="7.0" style="fill:#969696">wire</text>
</g>
<g transform="translate(300,23)">
<line x1="16.16" y1="4.702643708725836e-16" x2="3.84" y2="-4.702643708725836e-16" stroke="#000000" fill="none" stroke-width="3" marker-start="url(#arrow_back)" marker-end="url(#arrow_fwd)"/>
<text class="fnt2" x="-10" y="0" text-anchor="end" dy="7.0">lad_bus</text>
<text class="fnt2" x="30" y="0" text-anchor="normal" dy="7.0" style="fill:#969696">wire <tspan fill="#039BE5">[3:0]</tspan></text>
</g>
<g transform="translate(300,43)">
<line x1="16.16" y1="4.702643708725836e-16" x2="3.84" y2="-4.702643708725836e-16" stroke="#000000" fill="none" stroke-width="1" marker-start="url(#arrow_back)" marker-end="url(#arrow_fwd)"/>
<text class="fnt2" x="-10" y="0" text-anchor="end" dy="7.0">serirq</text>
<text class="fnt2" x="30" y="0" text-anchor="normal" dy="7.0" style="fill:#969696">wire</text>
</g>
</g>
<g transform="translate(0,93.0)">
<rect x="0" y="-15.0" width="300" height="113.0" stroke="#000000" fill="#E7FDBA" stroke-width="1"/>
<text class="fnt1" x="150.0" y="0" text-anchor="middle" dy="6.5">Interface to data provider</text>
<g transform="translate(0,23)">
<line x1="-20" y1="0" x2="0" y2="0" stroke="#000000" fill="none" stroke-width="1"/>
<text class="fnt2" x="10" y="0" text-anchor="normal" dy="7.0">lpc_wr_done</text>
<text class="fnt2" x="-30" y="0" text-anchor="end" dy="7.0" style="fill:#969696">wire</text>
</g>
<g transform="translate(0,43)">
<line x1="-20" y1="0" x2="0" y2="0" stroke="#000000" fill="none" stroke-width="1"/>
<text class="fnt2" x="10" y="0" text-anchor="normal" dy="7.0">lpc_data_rd</text>
<text class="fnt2" x="-30" y="0" text-anchor="end" dy="7.0" style="fill:#969696">wire</text>
</g>
<g transform="translate(0,63)">
<line x1="-20" y1="0" x2="0" y2="0" stroke="#000000" fill="none" stroke-width="3"/>
<text class="fnt2" x="10" y="0" text-anchor="normal" dy="7.0">irq_num</text>
<text class="fnt2" x="-30" y="0" text-anchor="end" dy="7.0" style="fill:#969696">wire <tspan fill="#039BE5">[3:0]</tspan></text>
</g>
<g transform="translate(0,83)">
<line x1="-20" y1="0" x2="0" y2="0" stroke="#000000" fill="none" stroke-width="1"/>
<text class="fnt2" x="10" y="0" text-anchor="normal" dy="7.0">interrupt</text>
<text class="fnt2" x="-30" y="0" text-anchor="end" dy="7.0" style="fill:#969696">wire</text>
</g>
<g transform="translate(300,23)">
<line x1="16.16" y1="4.702643708725836e-16" x2="3.84" y2="-4.702643708725836e-16" stroke="#000000" fill="none" stroke-width="3" marker-start="url(#arrow_back)" marker-end="url(#arrow_fwd)"/>
<text class="fnt2" x="-10" y="0" text-anchor="end" dy="7.0">lpc_data_io</text>
<text class="fnt2" x="30" y="0" text-anchor="normal" dy="7.0" style="fill:#969696">wire <tspan fill="#039BE5">[7:0]</tspan></text>
</g>
<g transform="translate(300,43)">
<line x1="20" y1="0" x2="0" y2="0" stroke="#000000" fill="none" stroke-width="3"/>
<text class="fnt2" x="-10" y="0" text-anchor="end" dy="7.0">lpc_addr_o</text>
<text class="fnt2" x="30" y="0" text-anchor="normal" dy="7.0" style="fill:#969696">wire <tspan fill="#039BE5">[15:0]</tspan></text>
</g>
<g transform="translate(300,63)">
<line x1="20" y1="0" x2="0" y2="0" stroke="#000000" fill="none" stroke-width="1"/>
<text class="fnt2" x="-10" y="0" text-anchor="end" dy="7.0">lpc_data_wr</text>
<text class="fnt2" x="30" y="0" text-anchor="normal" dy="7.0" style="fill:#969696">wire</text>
</g>
<g transform="translate(300,83)">
<line x1="20" y1="0" x2="0" y2="0" stroke="#000000" fill="none" stroke-width="1"/>
<text class="fnt2" x="-10" y="0" text-anchor="end" dy="7.0">lpc_data_req</text>
<text class="fnt2" x="30" y="0" text-anchor="normal" dy="7.0" style="fill:#969696">wire</text>
</g>
</g>
<rect x="1.0" y="-14.0" width="298.0" height="204.0" stroke="#000000" fill="none" stroke-width="3"/>
</svg>